<?xml version="1.0" encoding="UTF-8"?>
<!DOCTYPE svg PUBLIC "-//W3C//DTD SVG 1.1//EN" "http://www.w3.org/Graphics/SVG/1.1/DTD/svg11.dtd">
<svg xmlns="http://www.w3.org/2000/svg" version="1.1" width="1026px" height="1026px" style="shape-rendering:geometricPrecision; text-rendering:geometricPrecision; image-rendering:optimizeQuality; fill-rule:evenodd; clip-rule:evenodd" xmlns:xlink="http://www.w3.org/1999/xlink">
<g><path style="opacity:0.997" fill="#f8f8f8" d="M 479.5,-0.5 C 501.5,-0.5 523.5,-0.5 545.5,-0.5C 700.661,12.4843 826.161,79.8176 922,201.5C 983.629,283.866 1018.13,376.532 1025.5,479.5C 1025.5,501.5 1025.5,523.5 1025.5,545.5C 1014.71,681.558 960.048,796.391 861.5,890C 771.922,971.162 666.589,1016.33 545.5,1025.5C 523.5,1025.5 501.5,1025.5 479.5,1025.5C 319.6,1011.66 191.767,940.991 96,813.5C 39.1857,733.237 7.01901,643.904 -0.5,545.5C -0.5,523.5 -0.5,501.5 -0.5,479.5C 11.2595,335.813 70.9261,216.647 178.5,122C 265.495,49.1938 365.828,8.3605 479.5,-0.5 Z"/></g>
<g><path style="opacity:1" fill="#f9f9f9" d="M 473.5,101.5 C 478.833,101.5 484.167,101.5 489.5,101.5C 489.5,104.167 489.5,106.833 489.5,109.5C 494.833,109.167 500.167,108.833 505.5,108.5C 504.406,102.095 507.073,99.7618 513.5,101.5C 513.5,106.833 513.5,112.167 513.5,117.5C 516.448,117.223 519.281,117.556 522,118.5C 523.78,116.707 525.613,115.04 527.5,113.5C 526.395,112.108 525.061,110.941 523.5,110C 525.995,109.843 528.328,109.676 530.5,109.5C 531.429,110.689 531.762,112.022 531.5,113.5C 532.833,113.5 534.167,113.5 535.5,113.5C 535.5,112.167 535.5,110.833 535.5,109.5C 544.697,110.1 553.697,109.433 562.5,107.5C 564.226,109.03 566.226,110.03 568.5,110.5C 571.421,109.593 574.421,109.26 577.5,109.5C 577.5,112.167 577.5,114.833 577.5,117.5C 584.066,116.945 590.399,117.779 596.5,120C 593.766,120.718 593.1,122.218 594.5,124.5C 596.5,125.167 598.5,125.833 600.5,126.5C 601.386,125.675 601.719,124.675 601.5,123.5C 597.5,123.167 597.5,122.833 601.5,122.5C 601.238,121.022 601.571,119.689 602.5,118.5C 605.285,117.941 607.618,116.608 609.5,114.5C 612.086,113.52 614.753,113.187 617.5,113.5C 617.5,114.833 617.5,116.167 617.5,117.5C 615.167,117.5 612.833,117.5 610.5,117.5C 610.495,121.534 610.162,125.534 609.5,129.5C 612.167,129.5 614.833,129.5 617.5,129.5C 617.181,127.25 617.681,125.25 619,123.5C 621.427,125.982 624.26,126.649 627.5,125.5C 629.334,126.754 631.334,127.421 633.5,127.5C 633.5,128.833 633.5,130.167 633.5,131.5C 632.022,131.238 630.689,131.571 629.5,132.5C 633.445,133.491 637.445,133.824 641.5,133.5C 641.5,130.833 641.5,128.167 641.5,125.5C 645.426,125.232 649.093,126.065 652.5,128C 650.82,128.347 649.82,129.347 649.5,131C 651.39,132.904 653.724,134.07 656.5,134.5C 657.474,136.743 657.808,139.076 657.5,141.5C 662.838,140.998 668.172,140.831 673.5,141C 668.206,141.818 668.206,142.318 673.5,142.5C 673.5,143.5 673.5,144.5 673.5,145.5C 672.167,145.5 670.833,145.5 669.5,145.5C 669.5,146.5 669.5,147.5 669.5,148.5C 671.262,148.357 672.929,148.691 674.5,149.5C 675.48,152.086 675.813,154.753 675.5,157.5C 676.833,157.5 678.167,157.5 679.5,157.5C 680.167,146.833 680.833,146.833 681.5,157.5C 682.833,157.5 684.167,157.5 685.5,157.5C 685.5,154.833 685.5,152.167 685.5,149.5C 686.833,149.5 688.167,149.5 689.5,149.5C 689.5,152.167 689.5,154.833 689.5,157.5C 694.833,157.5 700.167,157.5 705.5,157.5C 705.5,160.167 705.5,162.833 705.5,165.5C 708.167,165.5 710.833,165.5 713.5,165.5C 713.5,166.833 713.5,168.167 713.5,169.5C 716.167,169.5 718.833,169.5 721.5,169.5C 721.5,170.833 721.5,172.167 721.5,173.5C 724.167,173.5 726.833,173.5 729.5,173.5C 729.5,176.167 729.5,178.833 729.5,181.5C 732.167,181.5 734.833,181.5 737.5,181.5C 737.833,172.167 738.167,172.167 738.5,181.5C 740.737,182.449 743.071,183.116 745.5,183.5C 745.5,184.833 745.5,186.167 745.5,187.5C 744.022,187.238 742.689,187.571 741.5,188.5C 745.445,189.491 749.445,189.824 753.5,189.5C 753.5,192.167 753.5,194.833 753.5,197.5C 756.167,198.167 758.833,198.833 761.5,199.5C 761.5,200.833 761.5,202.167 761.5,203.5C 760.022,203.238 758.689,203.571 757.5,204.5C 760.167,207.833 760.167,211.167 757.5,214.5C 758.167,214.833 758.833,215.167 759.5,215.5C 762.167,214.167 764.833,212.833 767.5,211.5C 769.349,213.326 771.349,213.659 773.5,212.5C 774.748,213.04 775.915,213.707 777,214.5C 777.497,216.81 777.663,219.143 777.5,221.5C 782.833,221.5 788.167,221.5 793.5,221.5C 793.5,226.833 793.5,232.167 793.5,237.5C 794.833,237.5 796.167,237.5 797.5,237.5C 797.5,234.833 797.5,232.167 797.5,229.5C 798.833,229.5 800.167,229.5 801.5,229.5C 801.5,234.833 801.5,240.167 801.5,245.5C 804.167,245.5 806.833,245.5 809.5,245.5C 809.5,248.167 809.5,250.833 809.5,253.5C 804.167,253.5 798.833,253.5 793.5,253.5C 793.5,254.833 793.5,256.167 793.5,257.5C 796.167,257.5 798.833,257.5 801.5,257.5C 802.253,264.082 803.587,264.082 805.5,257.5C 806.415,258.328 807.081,259.328 807.5,260.5C 805.995,261.842 805.328,263.508 805.5,265.5C 806.833,265.5 808.167,265.5 809.5,265.5C 809.5,264.167 809.5,262.833 809.5,261.5C 812.833,261.5 816.167,261.5 819.5,261.5C 818.623,264.752 817.957,268.085 817.5,271.5C 818.494,276.137 819.161,280.803 819.5,285.5C 820.833,285.5 822.167,285.5 823.5,285.5C 824.167,280.167 824.833,274.833 825.5,269.5C 828.85,269.335 832.183,269.502 835.5,270C 832.833,272.333 832.833,274.667 835.5,277C 834.207,277.49 832.873,277.657 831.5,277.5C 831.5,280.167 831.5,282.833 831.5,285.5C 834.833,285.5 838.167,285.5 841.5,285.5C 841.5,290.833 841.5,296.167 841.5,301.5C 844.167,302.167 846.833,302.833 849.5,303.5C 849.5,304.833 849.5,306.167 849.5,307.5C 844.167,308.167 844.167,308.833 849.5,309.5C 849.5,312.167 849.5,314.833 849.5,317.5C 850.833,317.5 852.167,317.5 853.5,317.5C 853.857,322.933 854.857,328.266 856.5,333.5C 857.48,330.914 857.813,328.247 857.5,325.5C 860.167,325.5 862.833,325.5 865.5,325.5C 865.5,330.5 865.5,335.5 865.5,340.5C 876.167,340.833 876.167,341.167 865.5,341.5C 865.5,344.167 865.5,346.833 865.5,349.5C 868.167,349.5 870.833,349.5 873.5,349.5C 873.5,350.833 873.5,352.167 873.5,353.5C 874.833,353.5 876.167,353.5 877.5,353.5C 877.5,354.833 877.5,356.167 877.5,357.5C 873.5,357.5 869.5,357.5 865.5,357.5C 865.5,360.167 865.5,362.833 865.5,365.5C 870.833,365.5 876.167,365.5 881.5,365.5C 881.5,373.5 881.5,381.5 881.5,389.5C 884.167,390.167 886.833,390.833 889.5,391.5C 889.5,392.833 889.5,394.167 889.5,395.5C 884.167,396.167 884.167,396.833 889.5,397.5C 889.5,400.167 889.5,402.833 889.5,405.5C 892.167,405.5 894.833,405.5 897.5,405.5C 897.5,408.167 897.5,410.833 897.5,413.5C 894.833,413.5 892.167,413.5 889.5,413.5C 889.5,416.167 889.5,418.833 889.5,421.5C 892.167,421.5 894.833,421.5 897.5,421.5C 896.999,428.318 897.665,434.985 899.5,441.5C 897.665,448.015 896.999,454.682 897.5,461.5C 900.5,461.5 903.5,461.5 906.5,461.5C 906.497,465.524 906.164,469.524 905.5,473.5C 905.716,475.384 906.383,477.051 907.5,478.5C 905.827,480.523 905.16,482.856 905.5,485.5C 902.167,485.5 898.833,485.5 895.5,485.5C 896.824,493.432 897.491,501.432 897.5,509.5C 900.167,509.5 902.833,509.5 905.5,509.5C 905.5,506.833 905.5,504.167 905.5,501.5C 906.833,501.5 908.167,501.5 909.5,501.5C 909.5,504.167 909.5,506.833 909.5,509.5C 910.833,509.5 912.167,509.5 913.5,509.5C 913.5,512.167 913.5,514.833 913.5,517.5C 908.167,517.5 902.833,517.5 897.5,517.5C 897.5,520.167 897.5,522.833 897.5,525.5C 900.85,525.335 904.183,525.502 907.5,526C 904.85,528.082 905.184,529.749 908.5,531C 907.552,531.483 906.552,531.649 905.5,531.5C 905.5,540.167 905.5,548.833 905.5,557.5C 903.167,557.5 900.833,557.5 898.5,557.5C 898.167,562.833 897.833,568.167 897.5,573.5C 900.167,573.5 902.833,573.5 905.5,573.5C 905.5,576.167 905.5,578.833 905.5,581.5C 903.167,581.5 900.833,581.5 898.5,581.5C 898.5,584.167 898.5,586.833 898.5,589.5C 894.167,589.5 889.833,589.5 885.5,589.5C 885.5,592.167 885.5,594.833 885.5,597.5C 889.5,597.5 893.5,597.5 897.5,597.5C 897.5,600.167 897.5,602.833 897.5,605.5C 894.833,605.5 892.167,605.5 889.5,605.5C 889.5,610.833 889.5,616.167 889.5,621.5C 886.833,621.5 884.167,621.5 881.5,621.5C 881.421,623.666 880.754,625.666 879.5,627.5C 881.313,633.342 881.98,639.342 881.5,645.5C 884.167,645.5 886.833,645.5 889.5,645.5C 889.5,648.167 889.5,650.833 889.5,653.5C 886.833,653.5 884.167,653.5 881.5,653.5C 881.5,656.167 881.5,658.833 881.5,661.5C 873.833,661.5 866.167,661.5 858.5,661.5C 858.5,664.167 858.5,666.833 858.5,669.5C 860.833,669.5 863.167,669.5 865.5,669.5C 865.833,674.833 866.167,680.167 866.5,685.5C 868.833,685.5 871.167,685.5 873.5,685.5C 873.5,690.833 873.5,696.167 873.5,701.5C 870.833,701.5 868.167,701.5 865.5,701.5C 865.5,695.5 865.5,689.5 865.5,683.5C 861.63,684.799 857.63,685.466 853.5,685.5C 853.5,686.833 853.5,688.167 853.5,689.5C 854.833,689.5 856.167,689.5 857.5,689.5C 857.5,693.5 857.5,697.5 857.5,701.5C 854.833,701.5 852.167,701.5 849.5,701.5C 849.5,706.833 849.5,712.167 849.5,717.5C 844.167,717.5 838.833,717.5 833.5,717.5C 833.5,722.833 833.5,728.167 833.5,733.5C 836.167,733.5 838.833,733.5 841.5,733.5C 841.5,730.833 841.5,728.167 841.5,725.5C 844.167,725.5 846.833,725.5 849.5,725.5C 849.5,728.167 849.5,730.833 849.5,733.5C 846.677,734.217 844.01,735.217 841.5,736.5C 841.5,738.167 841.5,739.833 841.5,741.5C 838.833,741.5 836.167,741.5 833.5,741.5C 833.5,744.167 833.5,746.833 833.5,749.5C 828.167,749.5 822.833,749.5 817.5,749.5C 817.5,752.167 817.5,754.833 817.5,757.5C 814.833,757.5 812.167,757.5 809.5,757.5C 809.5,760.5 809.5,763.5 809.5,766.5C 810.833,766.5 812.167,766.5 813.5,766.5C 813.5,767.5 813.5,768.5 813.5,769.5C 809.871,767.24 805.871,765.907 801.5,765.5C 800.833,771.5 803.5,774.167 809.5,773.5C 809.5,776.167 809.5,778.833 809.5,781.5C 806.833,781.5 804.167,781.5 801.5,781.5C 802.167,775.5 799.5,772.833 793.5,773.5C 793.5,774.833 793.5,776.167 793.5,777.5C 792.167,777.5 790.833,777.5 789.5,777.5C 789.5,778.833 789.5,780.167 789.5,781.5C 790.833,781.5 792.167,781.5 793.5,781.5C 793.5,784.167 793.5,786.833 793.5,789.5C 790.833,789.5 788.167,789.5 785.5,789.5C 785.5,792.167 785.5,794.833 785.5,797.5C 782.833,797.5 780.167,797.5 777.5,797.5C 778.593,809.421 778.26,814.754 776.5,813.5C 774.167,813.5 771.833,813.5 769.5,813.5C 769.5,816.167 769.5,818.833 769.5,821.5C 765.5,821.5 761.5,821.5 757.5,821.5C 757.5,820.167 757.5,818.833 757.5,817.5C 756.167,817.5 754.833,817.5 753.5,817.5C 753.5,818.833 753.5,820.167 753.5,821.5C 750.753,821.187 748.086,821.52 745.5,822.5C 743.995,823.842 743.328,825.508 743.5,827.5C 742.022,827.238 740.689,827.571 739.5,828.5C 740.988,830.577 742.988,831.577 745.5,831.5C 745.5,832.833 745.5,834.167 745.5,835.5C 741.537,836.491 737.537,837.491 733.5,838.5C 734.689,839.429 736.022,839.762 737.5,839.5C 737.5,840.833 737.5,842.167 737.5,843.5C 735.071,843.884 732.737,844.551 730.5,845.5C 730.666,850.844 730.499,856.177 730,861.5C 729.503,858.854 729.336,856.187 729.5,853.5C 726.833,853.5 724.167,853.5 721.5,853.5C 720.833,848.167 720.167,842.833 719.5,837.5C 718.167,837.5 716.833,837.5 715.5,837.5C 715.5,840.167 715.5,842.833 715.5,845.5C 713.5,845.5 711.5,845.5 709.5,845.5C 709.5,848.167 709.5,850.833 709.5,853.5C 707.167,853.5 704.833,853.5 702.5,853.5C 701.833,857.5 701.167,857.5 700.5,853.5C 699.5,853.5 698.5,853.5 697.5,853.5C 698.205,858.776 698.205,864.109 697.5,869.5C 686.808,870.173 676.141,870.173 665.5,869.5C 665.5,872.167 665.5,874.833 665.5,877.5C 662.833,877.5 660.167,877.5 657.5,877.5C 657.5,880.167 657.5,882.833 657.5,885.5C 649.5,886.833 641.5,886.833 633.5,885.5C 633.5,886.833 633.5,888.167 633.5,889.5C 630.833,889.5 628.167,889.5 625.5,889.5C 625.5,890.833 625.5,892.167 625.5,893.5C 628.167,893.5 630.833,893.5 633.5,893.5C 633.5,896.167 633.5,898.833 633.5,901.5C 630.833,901.5 628.167,901.5 625.5,901.5C 625.557,897.867 624.557,897.7 622.5,901C 620.833,901.667 619.167,901.667 617.5,901C 621.119,898.976 621.286,896.809 618,894.5C 617.502,891.518 617.335,888.518 617.5,885.5C 614.833,885.5 612.167,885.5 609.5,885.5C 609.5,890.833 609.5,896.167 609.5,901.5C 604.167,901.5 598.833,901.5 593.5,901.5C 593.5,904.167 593.5,906.833 593.5,909.5C 590.833,909.5 588.167,909.5 585.5,909.5C 585.5,905.5 585.5,901.5 585.5,897.5C 584.167,897.5 582.833,897.5 581.5,897.5C 581.5,898.833 581.5,900.167 581.5,901.5C 580.167,901.5 578.833,901.5 577.5,901.5C 577.5,904.167 577.5,906.833 577.5,909.5C 564.248,910.053 550.915,910.053 537.5,909.5C 537.5,912.167 537.5,914.833 537.5,917.5C 534.833,917.5 532.167,917.5 529.5,917.5C 529.5,914.833 529.5,912.167 529.5,909.5C 524.167,909.5 518.833,909.5 513.5,909.5C 513.5,912.167 513.5,914.833 513.5,917.5C 510.833,917.5 508.167,917.5 505.5,917.5C 505.5,914.833 505.5,912.167 505.5,909.5C 502.167,909.5 498.833,909.5 495.5,909.5C 495.5,908.167 495.5,906.833 495.5,905.5C 494.167,905.5 492.833,905.5 491.5,905.5C 490.201,909.37 489.534,913.37 489.5,917.5C 484.167,917.5 478.833,917.5 473.5,917.5C 473.5,914.833 473.5,912.167 473.5,909.5C 470.833,909.5 468.167,909.5 465.5,909.5C 465.5,906.833 465.5,904.167 465.5,901.5C 466.833,901.5 468.167,901.5 469.5,901.5C 469.5,900.167 469.5,898.833 469.5,897.5C 468.167,897.5 466.833,897.5 465.5,897.5C 465.5,896.167 465.5,894.833 465.5,893.5C 464.167,893.5 462.833,893.5 461.5,893.5C 461.5,888.167 461.5,882.833 461.5,877.5C 460.167,877.5 458.833,877.5 457.5,877.5C 457.5,882.833 457.5,888.167 457.5,893.5C 454.833,893.5 452.167,893.5 449.5,893.5C 449.5,894.833 449.5,896.167 449.5,897.5C 452.167,897.5 454.833,897.5 457.5,897.5C 457.5,898.833 457.5,900.167 457.5,901.5C 454.833,901.5 452.167,901.5 449.5,901.5C 449.5,904.167 449.5,906.833 449.5,909.5C 446.833,909.5 444.167,909.5 441.5,909.5C 441.5,906.833 441.5,904.167 441.5,901.5C 436.167,901.5 430.833,901.5 425.5,901.5C 425.5,904.167 425.5,906.833 425.5,909.5C 422.833,909.5 420.167,909.5 417.5,909.5C 417.997,905.241 417.331,901.241 415.5,897.5C 416.853,896.476 417.52,895.143 417.5,893.5C 415.08,893.292 412.747,893.626 410.5,894.5C 409.062,896.998 409.396,899.164 411.5,901C 408.518,901.498 405.518,901.665 402.5,901.5C 402.664,904.187 402.497,906.854 402,909.5C 401.501,905.514 401.334,901.514 401.5,897.5C 400.167,897.5 398.833,897.5 397.5,897.5C 397.5,896.167 397.5,894.833 397.5,893.5C 398.833,893.5 400.167,893.5 401.5,893.5C 401.5,890.833 401.5,888.167 401.5,885.5C 398.833,885.5 396.167,885.5 393.5,885.5C 393.5,888.167 393.5,890.833 393.5,893.5C 390.833,893.5 388.167,893.5 385.5,893.5C 385.5,890.833 385.5,888.167 385.5,885.5C 381.975,885.785 378.642,885.119 375.5,883.5C 371.007,885.248 366.34,885.915 361.5,885.5C 361.5,882.833 361.5,880.167 361.5,877.5C 356.167,877.5 350.833,877.5 345.5,877.5C 345.5,874.833 345.5,872.167 345.5,869.5C 340.167,869.5 334.833,869.5 329.5,869.5C 329.5,866.833 329.5,864.167 329.5,861.5C 326.102,861.82 322.768,861.487 319.5,860.5C 321.531,858.511 322.197,856.344 321.5,854C 318.87,853.155 316.536,853.655 314.5,855.5C 309.019,853.936 303.352,852.936 297.5,852.5C 298.682,850.015 298.348,847.681 296.5,845.5C 295.522,845.977 294.689,846.643 294,847.5C 292.951,845.893 291.451,845.227 289.5,845.5C 289.5,842.833 289.5,840.167 289.5,837.5C 286.833,837.5 284.167,837.5 281.5,837.5C 281.817,840.572 281.484,843.572 280.5,846.5C 279.833,846.167 279.167,845.833 278.5,845.5C 277.52,842.914 277.187,840.247 277.5,837.5C 276.167,837.5 274.833,837.5 273.5,837.5C 273.167,832.167 272.833,826.833 272.5,821.5C 270.167,821.5 267.833,821.5 265.5,821.5C 265.5,818.833 265.5,816.167 265.5,813.5C 262.833,813.5 260.167,813.5 257.5,813.5C 257.5,816.167 257.5,818.833 257.5,821.5C 254.833,821.5 252.167,821.5 249.5,821.5C 249.5,816.167 249.5,810.833 249.5,805.5C 246.833,805.5 244.167,805.5 241.5,805.5C 241.5,804.167 241.5,802.833 241.5,801.5C 240.167,801.5 238.833,801.5 237.5,801.5C 237.5,800.167 237.5,798.833 237.5,797.5C 241.555,797.824 245.555,797.491 249.5,796.5C 246.956,796.051 244.29,796.051 241.5,796.5C 241.238,795.022 241.571,793.689 242.5,792.5C 244.5,793.167 246.5,793.833 248.5,794.5C 249.429,793.311 249.762,791.978 249.5,790.5C 247.266,790.38 245.099,790.713 243,791.5C 239.384,789.744 235.551,789.077 231.5,789.5C 231.167,800.167 230.833,800.167 230.5,789.5C 229.167,789.5 227.833,789.5 226.5,789.5C 226.5,792.167 226.5,794.833 226.5,797.5C 223.5,797.5 220.5,797.5 217.5,797.5C 217.5,794.833 217.5,792.167 217.5,789.5C 220.167,789.5 222.833,789.5 225.5,789.5C 225.5,786.833 225.5,784.167 225.5,781.5C 222.833,781.5 220.167,781.5 217.5,781.5C 218.167,776.167 218.833,770.833 219.5,765.5C 210.833,765.5 202.167,765.5 193.5,765.5C 193.522,761.407 194.189,757.407 195.5,753.5C 193.846,746.934 193.179,740.267 193.5,733.5C 190.833,733.5 188.167,733.5 185.5,733.5C 185.5,736.167 185.5,738.833 185.5,741.5C 182.833,741.5 180.167,741.5 177.5,741.5C 177.5,736.167 177.5,730.833 177.5,725.5C 175.167,725.5 172.833,725.5 170.5,725.5C 170.5,722.833 170.5,720.167 170.5,717.5C 171.5,717.5 172.5,717.5 173.5,717.5C 173.5,714.167 173.5,710.833 173.5,707.5C 169.63,708.799 165.63,709.466 161.5,709.5C 161.167,720.167 160.833,720.167 160.5,709.5C 158.167,709.5 155.833,709.5 153.5,709.5C 153.5,706.833 153.5,704.167 153.5,701.5C 156.167,701.5 158.833,701.5 161.5,701.5C 161.5,696.167 161.5,690.833 161.5,685.5C 160.167,685.5 158.833,685.5 157.5,685.5C 157.5,684.5 157.5,683.5 157.5,682.5C 156.167,682.5 154.833,682.5 153.5,682.5C 153.5,680.833 153.5,679.167 153.5,677.5C 150.833,677.5 148.167,677.5 145.5,677.5C 145.5,674.833 145.5,672.167 145.5,669.5C 142.833,669.5 140.167,669.5 137.5,669.5C 137.334,664.156 137.501,658.823 138,653.5C 138.497,656.146 138.664,658.813 138.5,661.5C 139.5,661.5 140.5,661.5 141.5,661.5C 141.5,658.833 141.5,656.167 141.5,653.5C 142.5,653.5 143.5,653.5 144.5,653.5C 144.833,664.167 145.167,664.167 145.5,653.5C 146.833,653.5 148.167,653.5 149.5,653.5C 149.5,652.167 149.5,650.833 149.5,649.5C 148.167,649.5 146.833,649.5 145.5,649.5C 145.5,648.167 145.5,646.833 145.5,645.5C 142.833,645.5 140.167,645.5 137.5,645.5C 137.337,643.143 137.503,640.81 138,638.5C 141.244,637.209 141.077,636.209 137.5,635.5C 133.973,638.408 131.307,637.741 129.5,633.5C 129.919,632.328 130.585,631.328 131.5,630.5C 129.74,627.788 129.073,624.788 129.5,621.5C 132.167,621.5 134.833,621.5 137.5,621.5C 137.5,618.833 137.5,616.167 137.5,613.5C 135.167,613.5 132.833,613.5 130.5,613.5C 129.842,610.844 129.175,608.178 128.5,605.5C 128.594,603.311 129.261,601.311 130.5,599.5C 128.699,596.465 128.032,593.131 128.5,589.5C 126.167,589.5 123.833,589.5 121.5,589.5C 121.5,586.833 121.5,584.167 121.5,581.5C 125.63,581.466 129.63,580.799 133.5,579.5C 133.5,578.167 133.5,576.833 133.5,575.5C 134.833,575.5 136.167,575.5 137.5,575.5C 137.5,573.5 137.5,571.5 137.5,569.5C 134.833,569.5 132.167,569.5 129.5,569.5C 129.5,570.833 129.5,572.167 129.5,573.5C 125.151,574.423 121.817,573.09 119.5,569.5C 120.75,566.951 122.75,565.618 125.5,565.5C 125.5,563.833 125.5,562.167 125.5,560.5C 127.144,560.714 128.644,560.38 130,559.5C 132.549,567.099 133.716,566.433 133.5,557.5C 132.167,557.5 130.833,557.5 129.5,557.5C 129.5,556.167 129.5,554.833 129.5,553.5C 126.833,553.5 124.167,553.5 121.5,553.5C 120.535,557.166 120.368,555.832 121,549.5C 122.031,548.3 122.865,546.966 123.5,545.5C 121.804,541.683 121.137,537.683 121.5,533.5C 118.833,533.5 116.167,533.5 113.5,533.5C 113.334,528.489 113.501,523.489 114,518.5C 116.041,517.577 118.208,517.244 120.5,517.5C 120.833,512.167 121.167,506.833 121.5,501.5C 118.833,501.5 116.167,501.5 113.5,501.5C 113.5,493.5 113.5,485.5 113.5,477.5C 116.167,477.5 118.833,477.5 121.5,477.5C 121.334,469.493 121.5,461.493 122,453.5C 127.083,452.854 132.25,452.854 137.5,453.5C 137.5,450.833 137.5,448.167 137.5,445.5C 132.694,445.604 128.028,444.937 123.5,443.5C 123.5,442.167 123.5,440.833 123.5,439.5C 124.833,439.5 126.167,439.5 127.5,439.5C 127.092,433.465 126.426,427.465 125.5,421.5C 121.5,421.5 117.5,421.5 113.5,421.5C 113.5,418.833 113.5,416.167 113.5,413.5C 118.833,413.5 124.167,413.5 129.5,413.5C 129.5,410.833 129.5,408.167 129.5,405.5C 126.833,405.5 124.167,405.5 121.5,405.5C 121.65,394.683 126.983,389.349 137.5,389.5C 137.5,388.167 137.5,386.833 137.5,385.5C 138.833,385.5 140.167,385.5 141.5,385.5C 141.5,384.167 141.5,382.833 141.5,381.5C 138.75,381.382 136.75,380.049 135.5,377.5C 138.176,373.848 141.842,372.514 146.5,373.5C 146.5,370.833 146.5,368.167 146.5,365.5C 143.5,365.5 140.5,365.5 137.5,365.5C 137.5,363.167 137.5,360.833 137.5,358.5C 142.833,358.167 148.167,357.833 153.5,357.5C 153.5,356.167 153.5,354.833 153.5,353.5C 150.813,353.664 148.146,353.497 145.5,353C 146.833,352.333 146.833,351.667 145.5,351C 143.167,350.667 140.833,350.333 138.5,350C 141.437,349.9 144.104,349.067 146.5,347.5C 154.448,352.218 156.115,350.552 151.5,342.5C 153.26,339.788 153.927,336.788 153.5,333.5C 156.167,333.5 158.833,333.5 161.5,333.5C 161.5,330.833 161.5,328.167 161.5,325.5C 158.833,325.5 156.167,325.5 153.5,325.5C 153.5,322.833 153.5,320.167 153.5,317.5C 142.915,317.485 142.915,316.818 153.5,315.5C 154.833,314.167 154.833,312.833 153.5,311.5C 150.893,310.682 148.226,310.182 145.5,310C 150.823,309.501 156.156,309.334 161.5,309.5C 161.5,306.833 161.5,304.167 161.5,301.5C 164.167,301.5 166.833,301.5 169.5,301.5C 169.5,298.833 169.5,296.167 169.5,293.5C 172.167,293.5 174.833,293.5 177.5,293.5C 177.5,296.167 177.5,298.833 177.5,301.5C 180.167,301.5 182.833,301.5 185.5,301.5C 185.331,293.479 185.165,285.479 185,277.5C 185.414,277.043 185.914,276.709 186.5,276.5C 188.444,277.189 190.444,277.689 192.5,278C 193.435,280.381 193.768,282.881 193.5,285.5C 196.167,285.5 198.833,285.5 201.5,285.5C 201.5,282.833 201.5,280.167 201.5,277.5C 198.833,277.5 196.167,277.5 193.5,277.5C 193.52,275.857 192.853,274.524 191.5,273.5C 193.817,269.91 197.151,268.577 201.5,269.5C 201.833,258.833 202.167,258.833 202.5,269.5C 203.5,269.5 204.5,269.5 205.5,269.5C 205.5,266.833 205.5,264.167 205.5,261.5C 206.5,261.5 207.5,261.5 208.5,261.5C 208.336,264.187 208.503,266.854 209,269.5C 209.507,261.447 210.34,253.447 211.5,245.5C 212.833,245.5 214.167,245.5 215.5,245.5C 215.187,248.247 215.52,250.914 216.5,253.5C 217.429,252.311 217.762,250.978 217.5,249.5C 220.167,249.5 222.833,249.5 225.5,249.5C 225.5,248.167 225.5,246.833 225.5,245.5C 223.143,245.663 220.81,245.497 218.5,245C 217.953,242.633 216.953,240.467 215.5,238.5C 218.768,237.513 222.102,237.18 225.5,237.5C 225.5,232.167 225.5,226.833 225.5,221.5C 228.167,221.5 230.833,221.5 233.5,221.5C 233.5,218.833 233.5,216.167 233.5,213.5C 236.167,213.5 238.833,213.5 241.5,213.5C 241.5,216.167 241.5,218.833 241.5,221.5C 244.167,221.5 246.833,221.5 249.5,221.5C 249.5,220.167 249.5,218.833 249.5,217.5C 250.833,217.5 252.167,217.5 253.5,217.5C 253.5,216.167 253.5,214.833 253.5,213.5C 252.167,213.5 250.833,213.5 249.5,213.5C 249.193,207.907 249.527,202.407 250.5,197C 252.833,196.333 255.167,196.333 257.5,197C 260.102,198.14 262.769,198.973 265.5,199.5C 265.5,196.167 265.5,192.833 265.5,189.5C 268.833,189.5 272.167,189.5 275.5,189.5C 275.833,178.833 276.167,178.833 276.5,189.5C 277.833,189.5 279.167,189.5 280.5,189.5C 280.833,184.167 281.167,178.833 281.5,173.5C 284.788,173.927 287.788,173.26 290.5,171.5C 292.467,172.953 294.633,173.953 297,174.5C 299.719,173.556 302.552,173.223 305.5,173.5C 305.988,170.289 305.321,167.456 303.5,165C 307.1,162.849 307.1,160.515 303.5,158C 306.817,157.502 310.15,157.335 313.5,157.5C 313.5,154.833 313.5,152.167 313.5,149.5C 318.695,150.461 323.695,150.128 328.5,148.5C 329.5,149 330.5,149.5 331.5,150C 330.376,150.839 329.709,152.006 329.5,153.5C 331.026,157.364 331.692,161.364 331.5,165.5C 332.833,165.5 334.167,165.5 335.5,165.5C 335.27,162.306 335.936,159.306 337.5,156.5C 337.081,155.328 336.415,154.328 335.5,153.5C 336.687,152.481 337.687,151.314 338.5,150C 343.489,149.501 348.489,149.334 353.5,149.5C 353.5,148.167 353.5,146.833 353.5,145.5C 354.833,145.5 356.167,145.5 357.5,145.5C 357.5,144.167 357.5,142.833 357.5,141.5C 356.167,141.5 354.833,141.5 353.5,141.5C 353.091,137.501 353.925,133.834 356,130.5C 358.038,135.605 359.705,135.605 361,130.5C 361.483,131.448 361.649,132.448 361.5,133.5C 364.167,133.5 366.833,133.5 369.5,133.5C 369.5,132.167 369.5,130.833 369.5,129.5C 370.833,129.5 372.167,129.5 373.5,129.5C 373.5,130.833 373.5,132.167 373.5,133.5C 377.5,133.5 381.5,133.5 385.5,133.5C 385.5,130.833 385.5,128.167 385.5,125.5C 388.167,125.5 390.833,125.5 393.5,125.5C 393.5,122.833 393.5,120.167 393.5,117.5C 398.833,117.167 404.167,116.833 409.5,116.5C 409.5,119.5 409.5,122.5 409.5,125.5C 412.167,125.5 414.833,125.5 417.5,125.5C 417.5,122.833 417.5,120.167 417.5,117.5C 425.5,117.5 433.5,117.5 441.5,117.5C 441.5,114.833 441.5,112.167 441.5,109.5C 446.833,109.167 452.167,108.833 457.5,108.5C 457.5,111.5 457.5,114.5 457.5,117.5C 460.167,117.5 462.833,117.5 465.5,117.5C 465.5,114.833 465.5,112.167 465.5,109.5C 468.167,109.5 470.833,109.5 473.5,109.5C 473.5,106.833 473.5,104.167 473.5,101.5 Z"/></g>
<g><path style="opacity:1" fill="#d9d9d9" d="M 748.5,278.5 C 722.666,294.587 696.333,309.921 669.5,324.5C 624.37,299.436 579.704,273.603 535.5,247C 526.926,242.214 518.259,237.714 509.5,233.5C 491.387,243.109 473.387,252.942 455.5,263C 421.406,283.431 387.072,303.431 352.5,323C 350.866,323.494 349.199,323.66 347.5,323.5C 321.338,309.256 295.671,294.256 270.5,278.5C 294.578,264.105 318.912,249.605 343.5,235C 378.631,215.884 413.297,195.884 447.5,175C 468.043,163.23 488.709,151.73 509.5,140.5C 589.701,185.761 669.368,231.761 748.5,278.5 Z"/></g>
<g><path style="opacity:1" fill="#b7b7b7" d="M 509.5,233.5 C 509.175,264.24 509.508,294.907 510.5,325.5C 498.613,331.112 486.947,337.278 475.5,344C 460.103,352.69 445.103,361.857 430.5,371.5C 402.667,355.751 375,339.751 347.5,323.5C 349.199,323.66 350.866,323.494 352.5,323C 387.072,303.431 421.406,283.431 455.5,263C 473.387,252.942 491.387,243.109 509.5,233.5 Z"/></g>
<g><path style="opacity:1" fill="#525252" d="M 509.5,233.5 C 518.259,237.714 526.926,242.214 535.5,247C 579.704,273.603 624.37,299.436 669.5,324.5C 643.168,340.335 616.501,355.669 589.5,370.5C 563.004,355.753 536.671,340.753 510.5,325.5C 509.508,294.907 509.175,264.24 509.5,233.5 Z"/></g>
<g><path style="opacity:1" fill="#fe5353" d="M 270.5,278.5 C 295.671,294.256 321.338,309.256 347.5,323.5C 375,339.751 402.667,355.751 430.5,371.5C 456.56,386.874 482.894,401.874 509.5,416.5C 536.55,401.647 563.217,386.314 589.5,370.5C 616.501,355.669 643.168,340.335 669.5,324.5C 696.333,309.921 722.666,294.587 748.5,278.5C 775.446,293.745 802.446,309.078 829.5,324.5C 830.832,447.999 830.832,571.333 829.5,694.5C 829.5,571.5 829.5,448.5 829.5,325.5C 722.63,386.095 616.297,447.429 510.5,509.5C 510.167,509.5 509.833,509.5 509.5,509.5C 402.823,448.162 296.157,386.829 189.5,325.5C 216.001,309.079 243.001,293.413 270.5,278.5 Z"/></g>
<g><path style="opacity:1" fill="#fcfcfb" d="M 510.5,325.5 C 536.671,340.753 563.004,355.753 589.5,370.5C 563.217,386.314 536.55,401.647 509.5,416.5C 482.894,401.874 456.56,386.874 430.5,371.5C 445.103,361.857 460.103,352.69 475.5,344C 486.947,337.278 498.613,331.112 510.5,325.5 Z"/></g>
<g><path style="opacity:1" fill="#fe0302" d="M 829.5,694.5 C 803.835,710.002 777.835,725.002 751.5,739.5C 750.833,647.833 750.167,556.167 749.5,464.5C 722.005,479.078 695.005,494.411 668.5,510.5C 616.302,540.765 563.969,570.765 511.5,600.5C 510.502,570.338 510.169,540.005 510.5,509.5C 616.297,447.429 722.63,386.095 829.5,325.5C 829.5,448.5 829.5,571.5 829.5,694.5 Z"/></g>
<g><path style="opacity:1" fill="#640001" d="M 189.5,325.5 C 296.157,386.829 402.823,448.162 509.5,509.5C 509.5,540.167 509.5,570.833 509.5,601.5C 457.031,571.765 404.698,541.765 352.5,511.5C 351.791,510.596 350.791,510.263 349.5,510.5C 324.297,494.731 298.63,479.731 272.5,465.5C 272.5,465.167 272.5,464.833 272.5,464.5C 271.432,463.566 270.099,463.232 268.5,463.5C 268.168,525.336 268.501,587.002 269.5,648.5C 270.159,679.185 269.492,709.518 267.5,739.5C 241.612,724.638 215.779,709.638 190,694.5C 189.5,571.5 189.333,448.5 189.5,325.5 Z"/></g>
<g><path style="opacity:1" fill="#640101" d="M 749.5,464.5 C 749.5,525.5 749.5,586.5 749.5,647.5C 749.167,647.5 748.833,647.5 748.5,647.5C 722.302,632.235 695.969,617.235 669.5,602.5C 669.831,571.662 669.498,540.995 668.5,510.5C 695.005,494.411 722.005,479.078 749.5,464.5 Z"/></g>
<g><path style="opacity:1" fill="#fe0402" d="M 272.5,465.5 C 298.63,479.731 324.297,494.731 349.5,510.5C 349.5,541.167 349.5,571.833 349.5,602.5C 323.833,617.167 298.167,631.833 272.5,646.5C 271.167,616.674 270.5,586.507 270.5,556C 270.5,525.493 271.167,495.326 272.5,465.5 Z"/></g>
<g><path style="opacity:1" fill="#de0305" d="M 272.5,464.5 C 272.5,464.833 272.5,465.167 272.5,465.5C 271.167,495.326 270.5,525.493 270.5,556C 270.5,586.507 271.167,616.674 272.5,646.5C 272.158,647.338 271.492,647.672 270.5,647.5C 269.501,586.669 269.168,525.669 269.5,464.5C 270.5,464.5 271.5,464.5 272.5,464.5 Z"/></g>
<g><path style="opacity:1" fill="#7e0102" d="M 272.5,464.5 C 271.5,464.5 270.5,464.5 269.5,464.5C 269.168,525.669 269.501,586.669 270.5,647.5C 270.5,647.833 270.5,648.167 270.5,648.5C 270.167,648.5 269.833,648.5 269.5,648.5C 268.501,587.002 268.168,525.336 268.5,463.5C 270.099,463.232 271.432,463.566 272.5,464.5 Z"/></g>
<g><path style="opacity:1" fill="#db0302" d="M 509.5,509.5 C 509.833,509.5 510.167,509.5 510.5,509.5C 510.169,540.005 510.502,570.338 511.5,600.5C 511.158,601.338 510.492,601.672 509.5,601.5C 509.5,570.833 509.5,540.167 509.5,509.5 Z"/></g>
<g><path style="opacity:1" fill="#fdfdfc" d="M 668.5,510.5 C 669.498,540.995 669.831,571.662 669.5,602.5C 615.989,632.637 562.656,663.303 509.5,694.5C 456.553,663.919 403.553,633.252 350.5,602.5C 349.841,571.815 350.508,541.482 352.5,511.5C 404.698,541.765 457.031,571.765 509.5,601.5C 510.492,601.672 511.158,601.338 511.5,600.5C 563.969,570.765 616.302,540.765 668.5,510.5 Z"/></g>
<g><path style="opacity:1" fill="#fbc7c4" d="M 349.5,510.5 C 350.791,510.263 351.791,510.596 352.5,511.5C 350.508,541.482 349.841,571.815 350.5,602.5C 350.167,602.5 349.833,602.5 349.5,602.5C 349.5,571.833 349.5,541.167 349.5,510.5 Z"/></g>
<g><path style="opacity:1" fill="#d9d9d9" d="M 349.5,602.5 C 349.833,602.5 350.167,602.5 350.5,602.5C 403.553,633.252 456.553,663.919 509.5,694.5C 562.656,663.303 615.989,632.637 669.5,602.5C 695.969,617.235 722.302,632.235 748.5,647.5C 748.586,648.496 748.252,649.329 747.5,650C 668.406,695.72 589.073,741.22 509.5,786.5C 429.67,741.086 350.004,695.419 270.5,649.5C 270.5,649.167 270.5,648.833 270.5,648.5C 270.5,648.167 270.5,647.833 270.5,647.5C 271.492,647.672 272.158,647.338 272.5,646.5C 298.167,631.833 323.833,617.167 349.5,602.5 Z"/></g>
<g><path style="opacity:1" fill="#b7b7b7" d="M 748.5,647.5 C 748.833,647.5 749.167,647.5 749.5,647.5C 749.5,678.5 749.5,709.5 749.5,740.5C 669.563,786.807 589.563,833.14 509.5,879.5C 508.893,879.376 508.56,879.043 508.5,878.5C 509.498,848.005 509.831,817.338 509.5,786.5C 589.073,741.22 668.406,695.72 747.5,650C 748.252,649.329 748.586,648.496 748.5,647.5 Z"/></g>
<g><path style="opacity:1" fill="#58403f" d="M 269.5,648.5 C 269.833,648.5 270.167,648.5 270.5,648.5C 270.5,648.833 270.5,649.167 270.5,649.5C 270.831,680.005 270.498,710.338 269.5,740.5C 268.508,740.672 267.842,740.338 267.5,739.5C 269.492,709.518 270.159,679.185 269.5,648.5 Z"/></g>
<g><path style="opacity:1" fill="#da3128" d="M 749.5,464.5 C 750.167,556.167 750.833,647.833 751.5,739.5C 751.158,740.338 750.492,740.672 749.5,740.5C 749.5,709.5 749.5,678.5 749.5,647.5C 749.5,586.5 749.5,525.5 749.5,464.5 Z"/></g>
<g><path style="opacity:1" fill="#535353" d="M 270.5,649.5 C 350.004,695.419 429.67,741.086 509.5,786.5C 509.831,817.338 509.498,848.005 508.5,878.5C 428.662,832.749 348.995,786.749 269.5,740.5C 270.498,710.338 270.831,680.005 270.5,649.5 Z"/></g>
</svg>
