<?xml version="1.0" encoding="UTF-8"?>
<!DOCTYPE svg PUBLIC "-//W3C//DTD SVG 1.1//EN" "http://www.w3.org/Graphics/SVG/1.1/DTD/svg11.dtd">
<svg xmlns="http://www.w3.org/2000/svg" version="1.1" width="300px" height="370px" style="shape-rendering:geometricPrecision; text-rendering:geometricPrecision; image-rendering:optimizeQuality; fill-rule:evenodd; clip-rule:evenodd" xmlns:xlink="http://www.w3.org/1999/xlink">
<g><path style="opacity:0.991" fill="#c0c1c3" d="M 86.5,12.5 C 91.0159,15.078 95.6826,17.578 100.5,20C 107.504,22.6114 114.504,25.1114 121.5,27.5C 130.714,31.0227 139.881,34.6894 149,38.5C 152.789,37.0212 156.623,35.6878 160.5,34.5C 156.98,37.1844 153.147,39.5177 149,41.5C 149.118,46.9325 148.285,51.9325 146.5,56.5C 117.289,45.4814 88.1221,34.1481 59,22.5C 54.5633,23.9626 50.73,26.296 47.5,29.5C 50.0258,30.8972 52.6924,31.8972 55.5,32.5C 55.39,41.7413 54.39,50.7413 52.5,59.5C 52.6985,51.6182 53.3651,43.7849 54.5,36C 54.3552,35.228 54.0219,34.5613 53.5,34C 51.0448,32.6884 48.5448,31.5218 46,30.5C 45.5077,23.0921 46.0077,15.7588 47.5,8.5C 51.3235,5.50612 55.4902,3.17278 60,1.5C 69.1966,4.52185 78.0299,8.18852 86.5,12.5 Z"/></g>
<g><path style="opacity:0.992" fill="#bdbdbf" d="M 236.5,2.5 C 237.251,1.42654 238.251,1.25988 239.5,2C 242.663,4.41565 245.996,6.58232 249.5,8.5C 250.936,14.4159 251.936,20.4159 252.5,26.5C 252.48,27.7261 252.147,28.7261 251.5,29.5C 249.728,26.4058 247.062,24.4058 243.5,23.5C 242.895,21.9743 241.729,20.9743 240,20.5C 239.5,16 239,11.5 238.5,7C 238.431,5.01448 237.765,3.51448 236.5,2.5 Z"/></g>
<g><path style="opacity:0.078" fill="#e9e9ea" d="M 86.5,12.5 C 98.5723,16.7067 110.239,21.7067 121.5,27.5C 114.504,25.1114 107.504,22.6114 100.5,20C 95.6826,17.578 91.0159,15.078 86.5,12.5 Z"/></g>
<g><path style="opacity:0.137" fill="#e0e0e1" d="M 231.5,3.5 C 211.018,14.3989 189.685,23.7323 167.5,31.5C 188.542,21.6493 209.875,12.3159 231.5,3.5 Z"/></g>
<g><path style="opacity:0.142" fill="#eaebeb" d="M 236.5,-0.5 C 237.5,-0.5 238.5,-0.5 239.5,-0.5C 243.005,2.51392 246.838,5.18059 251,7.5C 252.735,13.2716 254.235,19.105 255.5,25C 255.385,26.8951 254.718,28.5618 253.5,30C 250.568,31.1449 247.568,31.9782 244.5,32.5C 244.5,36.5 244.5,40.5 244.5,44.5C 242.946,40.4333 242.28,36.1 242.5,31.5C 245.426,30.5392 248.426,29.8726 251.5,29.5C 252.147,28.7261 252.48,27.7261 252.5,26.5C 251.936,20.4159 250.936,14.4159 249.5,8.5C 245.996,6.58232 242.663,4.41565 239.5,2C 238.251,1.25988 237.251,1.42654 236.5,2.5C 234.883,3.038 233.216,3.37133 231.5,3.5C 233.349,2.40698 235.016,1.07365 236.5,-0.5 Z"/></g>
<g><path style="opacity:1" fill="#a8a9ac" d="M 236.5,2.5 C 237.765,3.51448 238.431,5.01448 238.5,7C 239,11.5 239.5,16 240,20.5C 241.729,20.9743 242.895,21.9743 243.5,23.5C 241.262,22.4634 238.929,22.2967 236.5,23C 208.026,34.1541 179.693,45.4874 151.5,57C 149.613,57.7796 147.946,57.6129 146.5,56.5C 148.285,51.9325 149.118,46.9325 149,41.5C 153.147,39.5177 156.98,37.1844 160.5,34.5C 162.426,32.7073 164.759,31.7073 167.5,31.5C 189.685,23.7323 211.018,14.3989 231.5,3.5C 233.216,3.37133 234.883,3.038 236.5,2.5 Z"/></g>
<g><path style="opacity:0.1" fill="#ebebec" d="M 60.5,34.5 C 69.6853,37.9988 78.6853,41.6654 87.5,45.5C 78.6682,43.0894 70.0015,40.0894 61.5,36.5C 57.5815,68.0997 54.2482,99.7664 51.5,131.5C 52.5,131.5 53.5,131.5 54.5,131.5C 53.791,132.404 52.791,132.737 51.5,132.5C 50.353,128.354 50.1864,124.02 51,119.5C 53.8477,90.9729 57.0144,62.6396 60.5,34.5 Z"/></g>
<g><path style="opacity:0.069" fill="#eaeaea" d="M 87.5,45.5 C 90.5418,45.7329 93.2084,46.7329 95.5,48.5C 92.4582,48.2671 89.7916,47.2671 87.5,45.5 Z"/></g>
<g><path style="opacity:1" fill="#818185" d="M 146.5,56.5 C 147.946,57.6129 149.613,57.7796 151.5,57C 179.693,45.4874 208.026,34.1541 236.5,23C 238.929,22.2967 241.262,22.4634 243.5,23.5C 247.062,24.4058 249.728,26.4058 251.5,29.5C 248.426,29.8726 245.426,30.5392 242.5,31.5C 242.5,29.8333 242.5,28.1667 242.5,26.5C 241.178,26.33 240.011,26.6634 239,27.5C 238.505,29.4727 238.338,31.4727 238.5,33.5C 224.032,39.2212 209.366,44.7212 194.5,50C 190.535,51.3158 186.868,53.1492 183.5,55.5C 176.352,57.4946 169.352,59.9946 162.5,63C 182.952,70.7273 203.286,78.7273 223.5,87C 221.389,87.8447 219.389,88.678 217.5,89.5C 215.883,90.038 214.216,90.3713 212.5,90.5C 210.95,89.5592 209.284,88.8925 207.5,88.5C 205.5,88.1667 203.5,87.8333 201.5,87.5C 197.498,84.3214 192.831,82.6547 187.5,82.5C 185.316,80.4152 182.649,79.4152 179.5,79.5C 175.37,76.6761 170.703,75.0094 165.5,74.5C 161.865,71.5343 157.532,69.8676 152.5,69.5C 152.038,68.1201 151.038,67.4534 149.5,67.5C 146.498,68.3341 143.832,69.6675 141.5,71.5C 124.389,77.0932 107.389,83.0932 90.5,89.5C 86.861,83.949 85.1944,84.2824 85.5,90.5C 84.1667,90.5 82.8333,90.5 81.5,90.5C 80.158,89.207 78.4913,88.3736 76.5,88C 76.8333,87.6667 77.1667,87.3333 77.5,87C 96.6604,78.6123 115.994,70.6123 135.5,63C 128.447,60.2611 121.447,57.4278 114.5,54.5C 108.46,51.7094 102.126,49.7094 95.5,48.5C 93.2084,46.7329 90.5418,45.7329 87.5,45.5C 78.6853,41.6654 69.6853,37.9988 60.5,34.5C 60.5,32.1667 60.5,29.8333 60.5,27.5C 59.1667,27.5 57.8333,27.5 56.5,27.5C 56.3713,29.2161 56.038,30.8828 55.5,32.5C 52.6924,31.8972 50.0258,30.8972 47.5,29.5C 50.73,26.296 54.5633,23.9626 59,22.5C 88.1221,34.1481 117.289,45.4814 146.5,56.5 Z"/></g>
<g><path style="opacity:0.02" fill="#edeeee" d="M 95.5,48.5 C 102.126,49.7094 108.46,51.7094 114.5,54.5C 106.222,59.8398 97.2221,63.8398 87.5,66.5C 95.3889,62.5841 103.389,58.7508 111.5,55C 105.946,53.1002 100.613,50.9336 95.5,48.5 Z"/></g>
<g><path style="opacity:0.991" fill="#c0c1c3" d="M 183.5,55.5 C 188.182,56.8446 192.849,58.1779 197.5,59.5C 206.49,63.0033 215.323,67.0033 224,71.5C 225.57,77.0527 225.903,82.7194 225,88.5C 223.989,89.3366 222.822,89.67 221.5,89.5C 220.167,89.5 218.833,89.5 217.5,89.5C 219.389,88.678 221.389,87.8447 223.5,87C 203.286,78.7273 182.952,70.7273 162.5,63C 169.352,59.9946 176.352,57.4946 183.5,55.5 Z"/></g>
<g><path style="opacity:0.993" fill="#a9aaad" d="M 114.5,54.5 C 121.447,57.4278 128.447,60.2611 135.5,63C 115.994,70.6123 96.6604,78.6123 77.5,87C 77.1667,87.3333 76.8333,87.6667 76.5,88C 78.4913,88.3736 80.158,89.207 81.5,90.5C 78.8015,90.5339 76.3015,89.8672 74,88.5C 73.8143,83.1598 74.1477,77.8265 75,72.5C 78.7271,69.5529 82.8937,67.5529 87.5,66.5C 97.2221,63.8398 106.222,59.8398 114.5,54.5 Z"/></g>
<g><path style="opacity:0.21" fill="#e4e2e2" d="M 52.5,59.5 C 51.0037,84.2942 48.6704,108.961 45.5,133.5C 43.2143,133.595 41.2143,134.262 39.5,135.5C 38.8333,135.5 38.1667,135.5 37.5,135.5C 36.5,135.5 35.5,135.5 34.5,135.5C 37.6117,134.251 40.7783,132.917 44,131.5C 47.0429,107.378 49.8762,83.3782 52.5,59.5 Z"/></g>
<g><path style="opacity:0.02" fill="#dedede" d="M 152.5,69.5 C 148.751,69.7506 145.085,70.4172 141.5,71.5C 143.832,69.6675 146.498,68.3341 149.5,67.5C 151.038,67.4534 152.038,68.1201 152.5,69.5 Z"/></g>
<g><path style="opacity:0.016" fill="#eeeeee" d="M 152.5,69.5 C 157.532,69.8676 161.865,71.5343 165.5,74.5C 160.868,73.4039 156.534,71.7372 152.5,69.5 Z"/></g>
<g><path style="opacity:0.025" fill="#f0f0f1" d="M 165.5,74.5 C 170.703,75.0094 175.37,76.6761 179.5,79.5C 174.562,78.3537 169.895,76.687 165.5,74.5 Z"/></g>
<g><path style="opacity:0.14" fill="#ede6e7" d="M 244.5,47.5 C 246.433,75.3369 248.267,103.337 250,131.5C 259.626,133.369 269.126,135.369 278.5,137.5C 275.119,137.54 271.786,137.207 268.5,136.5C 261.567,135.951 254.9,134.617 248.5,132.5C 246.697,104.186 245.364,75.853 244.5,47.5 Z"/></g>
<g><path style="opacity:0.828" fill="#969598" d="M 242.5,31.5 C 242.28,36.1 242.946,40.4333 244.5,44.5C 244.5,45.5 244.5,46.5 244.5,47.5C 245.364,75.853 246.697,104.186 248.5,132.5C 245.287,132.81 242.287,132.477 239.5,131.5C 241.167,131.5 242.833,131.5 244.5,131.5C 242.804,98.6464 240.804,65.9798 238.5,33.5C 238.338,31.4727 238.505,29.4727 239,27.5C 240.011,26.6634 241.178,26.33 242.5,26.5C 242.5,28.1667 242.5,29.8333 242.5,31.5 Z"/></g>
<g><path style="opacity:0.908" fill="#949496" d="M 60.5,34.5 C 57.0144,62.6396 53.8477,90.9729 51,119.5C 50.1864,124.02 50.353,128.354 51.5,132.5C 49.7354,133.461 47.7354,133.795 45.5,133.5C 48.6704,108.961 51.0037,84.2942 52.5,59.5C 54.39,50.7413 55.39,41.7413 55.5,32.5C 56.038,30.8828 56.3713,29.2161 56.5,27.5C 57.8333,27.5 59.1667,27.5 60.5,27.5C 60.5,29.8333 60.5,32.1667 60.5,34.5 Z"/></g>
<g><path style="opacity:0.024" fill="#dddddd" d="M 179.5,79.5 C 182.649,79.4152 185.316,80.4152 187.5,82.5C 184.458,82.2671 181.792,81.2671 179.5,79.5 Z"/></g>
<g><path style="opacity:0.031" fill="#ebebeb" d="M 141.5,71.5 C 125.233,78.1493 108.899,84.816 92.5,91.5C 100.909,111.981 109.576,132.314 118.5,152.5C 118.167,152.5 117.833,152.5 117.5,152.5C 107.542,131.976 98.5422,110.976 90.5,89.5C 107.389,83.0932 124.389,77.0932 141.5,71.5 Z"/></g>
<g><path style="opacity:0.014" fill="#e5e6e8" d="M 187.5,82.5 C 192.831,82.6547 197.498,84.3214 201.5,87.5C 196.466,86.6018 191.799,84.9351 187.5,82.5 Z"/></g>
<g><path style="opacity:0.071" fill="#e7e7e8" d="M 238.5,33.5 C 240.804,65.9798 242.804,98.6464 244.5,131.5C 242.833,131.5 241.167,131.5 239.5,131.5C 239.5,131.167 239.5,130.833 239.5,130.5C 240.833,130.5 242.167,130.5 243.5,130.5C 241.305,98.8517 239.138,67.185 237,35.5C 220.469,41.8461 203.969,48.3461 187.5,55C 191.042,56.2755 194.375,57.7755 197.5,59.5C 192.849,58.1779 188.182,56.8446 183.5,55.5C 186.868,53.1492 190.535,51.3158 194.5,50C 209.366,44.7212 224.032,39.2212 238.5,33.5 Z"/></g>
<g><path style="opacity:0.035" fill="#e8e8e8" d="M 201.5,87.5 C 203.5,87.8333 205.5,88.1667 207.5,88.5C 208.235,91.8715 207.735,95.2048 206,98.5C 201.785,108.316 197.285,117.982 192.5,127.5C 197.733,115.035 202.4,102.369 206.5,89.5C 204.447,89.5979 202.78,88.9313 201.5,87.5 Z"/></g>
<g><path style="opacity:0.851" fill="#959496" d="M 90.5,89.5 C 98.5422,110.976 107.542,131.976 117.5,152.5C 117.5,153.5 117.5,154.5 117.5,155.5C 114.622,154.438 112.622,152.438 111.5,149.5C 110.193,146.22 108.527,143.22 106.5,140.5C 100.613,123.389 93.613,106.723 85.5,90.5C 85.1944,84.2824 86.861,83.949 90.5,89.5 Z"/></g>
<g><path style="opacity:0.724" fill="#969596" d="M 207.5,88.5 C 209.284,88.8925 210.95,89.5592 212.5,90.5C 205.444,108.279 198.111,125.946 190.5,143.5C 190.624,144.107 190.957,144.44 191.5,144.5C 188.471,147.859 185.471,151.192 182.5,154.5C 182.5,153.833 182.5,153.167 182.5,152.5C 183.906,149.586 185.906,147.086 188.5,145C 187.584,144.722 186.918,144.222 186.5,143.5C 189.02,138.443 191.02,133.109 192.5,127.5C 197.285,117.982 201.785,108.316 206,98.5C 207.735,95.2048 208.235,91.8715 207.5,88.5 Z"/></g>
<g><path style="opacity:0.11" fill="#f7d8db" d="M 103.5,137.5 C 103.856,139.19 104.856,140.19 106.5,140.5C 108.527,143.22 110.193,146.22 111.5,149.5C 105.031,142.191 98.6979,134.691 92.5,127C 90.6131,126.22 88.9464,126.387 87.5,127.5C 85.901,127.232 84.5676,127.566 83.5,128.5C 82.8333,128.5 82.1667,128.5 81.5,128.5C 72.4816,129.435 63.4816,130.435 54.5,131.5C 67.252,128.607 80.252,126.774 93.5,126C 96.6984,130.026 100.032,133.859 103.5,137.5 Z"/></g>
<g><path style="opacity:0.125" fill="#e6e2e5" d="M 217.5,89.5 C 218.833,89.5 220.167,89.5 221.5,89.5C 218.98,90.1885 216.48,91.1885 214,92.5C 207.595,106.638 201.761,120.972 196.5,135.5C 195.167,135.833 195.167,136.167 196.5,136.5C 196.5,136.833 196.5,137.167 196.5,137.5C 195.221,140.112 193.555,142.445 191.5,144.5C 190.957,144.44 190.624,144.107 190.5,143.5C 198.111,125.946 205.444,108.279 212.5,90.5C 214.216,90.3713 215.883,90.038 217.5,89.5 Z"/></g>
<g><path style="opacity:0.029" fill="#e8e8e9" d="M 192.5,127.5 C 191.02,133.109 189.02,138.443 186.5,143.5C 187.403,137.704 189.403,132.371 192.5,127.5 Z"/></g>
<g><path style="opacity:0.035" fill="#f8d5d8" d="M 239.5,130.5 C 239.5,130.833 239.5,131.167 239.5,131.5C 231.53,130.239 223.53,129.239 215.5,128.5C 212.367,127.257 209.033,126.757 205.5,127C 202.635,130.692 199.635,134.192 196.5,137.5C 196.5,137.167 196.5,136.833 196.5,136.5C 196.5,136.167 196.5,135.833 196.5,135.5C 199.03,132.312 201.696,129.145 204.5,126C 216.275,126.52 227.941,128.02 239.5,130.5 Z"/></g>
<g><path style="opacity:0.942" fill="#b63332" d="M 81.5,128.5 C 81.0825,129.222 80.4158,129.722 79.5,130C 66.174,132.177 52.8407,134.011 39.5,135.5C 41.2143,134.262 43.2143,133.595 45.5,133.5C 47.7354,133.795 49.7354,133.461 51.5,132.5C 52.791,132.737 53.791,132.404 54.5,131.5C 63.4816,130.435 72.4816,129.435 81.5,128.5 Z"/></g>
<g><path style="opacity:1" fill="#911b2b" d="M 215.5,128.5 C 212.302,127.964 209.635,128.631 207.5,130.5C 208.644,147.846 209.977,165.179 211.5,182.5C 192.005,200.162 172.672,217.995 153.5,236C 148.599,237.407 144.599,236.24 141.5,232.5C 143.928,234.043 146.594,235.043 149.5,235.5C 149.184,220.755 149.517,206.088 150.5,191.5C 161.196,179.141 171.862,166.808 182.5,154.5C 185.471,151.192 188.471,147.859 191.5,144.5C 193.555,142.445 195.221,140.112 196.5,137.5C 199.635,134.192 202.635,130.692 205.5,127C 209.033,126.757 212.367,127.257 215.5,128.5 Z"/></g>
<g><path style="opacity:0.042" fill="#eceded" d="M 81.5,90.5 C 82.8333,90.5 84.1667,90.5 85.5,90.5C 93.613,106.723 100.613,123.389 106.5,140.5C 104.856,140.19 103.856,139.19 103.5,137.5C 103.938,137.565 104.272,137.399 104.5,137C 97.9394,122.647 91.7727,108.147 86,93.5C 84.5913,92.2189 83.0913,91.2189 81.5,90.5 Z"/></g>
<g><path style="opacity:1" fill="#ce2226" d="M 215.5,128.5 C 223.53,129.239 231.53,130.239 239.5,131.5C 242.287,132.477 245.287,132.81 248.5,132.5C 254.9,134.617 261.567,135.951 268.5,136.5C 268.611,137.117 268.944,137.617 269.5,138C 272.371,138.118 275.038,138.784 277.5,140C 280.833,140.333 284.167,140.667 287.5,141C 284.044,141.18 280.711,141.847 277.5,143C 280.958,144.415 284.625,144.915 288.5,144.5C 290.823,158.691 292.323,173.025 293,187.5C 294.498,189.625 294.664,191.959 293.5,194.5C 294.432,205.812 295.099,217.146 295.5,228.5C 295.196,250.853 295.196,273.187 295.5,295.5C 295.5,298.167 295.5,300.833 295.5,303.5C 294.477,312.127 293.811,320.794 293.5,329.5C 293.5,330.167 293.5,330.833 293.5,331.5C 292.252,332.334 291.585,333.667 291.5,335.5C 290.505,341.135 289.838,346.802 289.5,352.5C 289.5,352.833 289.5,353.167 289.5,353.5C 288.661,354.641 287.994,355.974 287.5,357.5C 285.406,358.518 283.406,359.518 281.5,360.5C 267.505,361.893 253.505,363.227 239.5,364.5C 228.492,365.057 217.492,365.724 206.5,366.5C 206.5,362.833 206.5,359.167 206.5,355.5C 211.849,334.305 213.849,312.638 212.5,290.5C 213.098,285.187 213.431,279.854 213.5,274.5C 214.496,261.01 214.829,247.344 214.5,233.5C 214.418,217.406 214.418,201.406 214.5,185.5C 214.514,183.389 213.848,181.555 212.5,180C 212.833,179 213.167,178 213.5,177C 211.321,165.279 210.154,153.446 210,141.5C 208.907,137.831 208.074,134.164 207.5,130.5C 209.635,128.631 212.302,127.964 215.5,128.5 Z"/></g>
<g><path style="opacity:1" fill="#ce2226" d="M 81.5,128.5 C 82.1667,128.5 82.8333,128.5 83.5,128.5C 85.8333,128.5 88.1667,128.5 90.5,128.5C 90.4332,130.401 90.7665,132.234 91.5,134C 89.9343,136.912 89.101,140.079 89,143.5C 87.2379,158.093 86.0712,172.76 85.5,187.5C 83.6389,217.805 82.8056,248.138 83,278.5C 84.8135,303.143 86.9802,327.643 89.5,352C 87.9643,356.949 88.6309,361.616 91.5,366C 76.8629,365.325 62.1962,364.491 47.5,363.5C 44.6146,363.806 41.9479,363.473 39.5,362.5C 39.0825,361.778 38.4158,361.278 37.5,361C 29.053,360.802 20.7197,359.802 12.5,358C 10.8746,351.223 9.20792,344.389 7.5,337.5C 7.25284,336.287 6.58617,335.62 5.5,335.5C 4.63137,333.283 4.29803,330.95 4.5,328.5C 4.5,322.167 4.5,315.833 4.5,309.5C 5.5,309.5 6.5,309.5 7.5,309.5C 7.66212,307.473 7.49546,305.473 7,303.5C 6.66667,304.5 6.33333,305.5 6,306.5C 5.66667,306.167 5.33333,305.833 5,305.5C 4.24946,296.824 3.41613,288.157 2.5,279.5C 2.07994,276.384 1.07994,273.717 -0.5,271.5C -0.5,255.833 -0.5,240.167 -0.5,224.5C 0.166667,224.5 0.5,224.167 0.5,223.5C 1.26791,222.737 1.76791,221.737 2,220.5C 2.69983,205.504 3.19983,190.504 3.5,175.5C 6.04171,164.326 8.54171,152.993 11,141.5C 20.0464,140.001 28.8798,138.001 37.5,135.5C 38.1667,135.5 38.8333,135.5 39.5,135.5C 52.8407,134.011 66.174,132.177 79.5,130C 80.4158,129.722 81.0825,129.222 81.5,128.5 Z"/></g>
<g><path style="opacity:0.424" fill="#c86e72" d="M 289.5,140.5 C 290.657,143.273 291.324,146.273 291.5,149.5C 289.882,146.829 289.215,143.829 289.5,140.5 Z"/></g>
<g><path style="opacity:0.992" fill="#982a35" d="M 87.5,127.5 C 88.9464,126.387 90.6131,126.22 92.5,127C 98.6979,134.691 105.031,142.191 111.5,149.5C 112.622,152.438 114.622,154.438 117.5,155.5C 120.5,159.5 123.5,163.5 126.5,167.5C 125.761,167.631 125.094,167.464 124.5,167C 119.243,162.249 114.576,157.082 110.5,151.5C 109.914,151.709 109.414,152.043 109,152.5C 106.024,148.238 103.191,143.905 100.5,139.5C 98.7045,138.859 97.2045,137.859 96,136.5C 95.7508,137.624 95.2508,138.624 94.5,139.5C 94.6344,135.717 93.6344,132.051 91.5,128.5C 90.3112,127.571 88.9778,127.238 87.5,127.5 Z"/></g>
<g><path style="opacity:1" fill="#b83d3e" d="M 34.5,135.5 C 35.5,135.5 36.5,135.5 37.5,135.5C 28.8798,138.001 20.0464,140.001 11,141.5C 8.54171,152.993 6.04171,164.326 3.5,175.5C 4.14117,163.678 5.80784,152.012 8.5,140.5C 16.9193,137.984 25.586,136.317 34.5,135.5 Z"/></g>
<g><path style="opacity:1" fill="#a71e2c" d="M 83.5,128.5 C 84.5676,127.566 85.901,127.232 87.5,127.5C 88.9778,127.238 90.3112,127.571 91.5,128.5C 93.6344,132.051 94.6344,135.717 94.5,139.5C 95.2508,138.624 95.7508,137.624 96,136.5C 97.2045,137.859 98.7045,138.859 100.5,139.5C 103.191,143.905 106.024,148.238 109,152.5C 109.414,152.043 109.914,151.709 110.5,151.5C 114.576,157.082 119.243,162.249 124.5,167C 125.094,167.464 125.761,167.631 126.5,167.5C 134.202,175.2 141.535,183.2 148.5,191.5C 148.5,205.5 148.5,219.5 148.5,233.5C 145.355,232.923 143.855,230.923 144,227.5C 143.088,232.364 141.255,232.531 138.5,228C 139.328,227.085 140.328,226.419 141.5,226C 138.956,224.908 136.289,224.241 133.5,224C 131.229,221.218 128.563,219.051 125.5,217.5C 124.5,217.167 123.833,216.5 123.5,215.5C 121.873,213.37 120.04,211.37 118,209.5C 116.991,207.975 116.491,206.308 116.5,204.5C 114.435,204.483 112.435,204.15 110.5,203.5C 103.058,197.23 95.7244,190.73 88.5,184C 88.1667,183.833 87.8333,183.667 87.5,183.5C 86.5713,184.689 86.238,186.022 86.5,187.5C 86.1667,187.5 85.8333,187.5 85.5,187.5C 86.0712,172.76 87.2379,158.093 89,143.5C 89.101,140.079 89.9343,136.912 91.5,134C 90.7665,132.234 90.4332,130.401 90.5,128.5C 88.1667,128.5 85.8333,128.5 83.5,128.5 Z"/></g>
<g><path style="opacity:1" fill="#a93034" d="M 46.5,313.5 C 43.959,299.761 42.959,285.761 43.5,271.5C 43.3334,247.498 43.5,223.498 44,199.5C 44.9583,187.124 46.125,174.791 47.5,162.5C 46.1667,162.5 44.8333,162.5 43.5,162.5C 42.3726,172.298 41.3726,181.965 40.5,191.5C 40.1703,181.425 40.8369,171.425 42.5,161.5C 44.4086,160.652 46.4086,160.318 48.5,160.5C 47.4448,176.16 46.2781,191.827 45,207.5C 44.0505,242.88 44.5505,278.213 46.5,313.5 Z"/></g>
<g><path style="opacity:0.58" fill="#b95b5b" d="M 293.5,165.5 C 295.303,173.936 296.303,182.603 296.5,191.5C 294.783,183.055 293.783,174.388 293.5,165.5 Z"/></g>
<g><path style="opacity:0.106" fill="#f8e1e3" d="M 117.5,152.5 C 117.833,152.5 118.167,152.5 118.5,152.5C 119.045,154.593 119.878,156.593 121,158.5C 130.703,168.535 140.037,178.868 149,189.5C 160.032,176.971 171.199,164.638 182.5,152.5C 182.5,153.167 182.5,153.833 182.5,154.5C 171.862,166.808 161.196,179.141 150.5,191.5C 149.833,191.5 149.167,191.5 148.5,191.5C 141.535,183.2 134.202,175.2 126.5,167.5C 123.5,163.5 120.5,159.5 117.5,155.5C 117.5,154.5 117.5,153.5 117.5,152.5 Z"/></g>
<g><path style="opacity:1" fill="#c0232d" d="M 207.5,130.5 C 208.074,134.164 208.907,137.831 210,141.5C 210.154,153.446 211.321,165.279 213.5,177C 213.167,178 212.833,179 212.5,180C 213.848,181.555 214.514,183.389 214.5,185.5C 214.418,201.406 214.418,217.406 214.5,233.5C 213.818,219.265 213.151,204.932 212.5,190.5C 212.806,187.615 212.473,184.948 211.5,182.5C 209.977,165.179 208.644,147.846 207.5,130.5 Z"/></g>
<g><path style="opacity:1" fill="#b48587" d="M 257.5,207.5 C 256.434,202.681 255.6,197.681 255,192.5C 254.501,197.489 254.334,202.489 254.5,207.5C 253.831,199.464 252.831,191.464 251.5,183.5C 250.672,176.519 250.005,169.519 249.5,162.5C 250.833,162.5 252.167,162.5 253.5,162.5C 255.74,177.418 257.073,192.418 257.5,207.5 Z"/></g>
<g><path style="opacity:1" fill="#b38183" d="M 43.5,271.5 C 42.6681,250.337 42.1681,229.004 42,207.5C 40.5788,232.803 40.0788,258.136 40.5,283.5C 40.1667,283.5 39.8333,283.5 39.5,283.5C 39.2303,252.819 39.5637,222.152 40.5,191.5C 41.3726,181.965 42.3726,172.298 43.5,162.5C 44.8333,162.5 46.1667,162.5 47.5,162.5C 46.125,174.791 44.9583,187.124 44,199.5C 43.5,223.498 43.3334,247.498 43.5,271.5 Z"/></g>
<g><path style="opacity:1" fill="#911b2b" d="M 211.5,182.5 C 212.473,184.948 212.806,187.615 212.5,190.5C 211.379,205.006 211.379,219.672 212.5,234.5C 194.834,256.003 174.5,274.503 151.5,290C 147.095,289.797 143.428,287.964 140.5,284.5C 143.689,285.514 146.522,287.18 149,289.5C 149.667,275.5 149.667,261.5 149,247.5C 147.127,248.089 145.46,247.422 144,245.5C 143.505,243.527 143.338,241.527 143.5,239.5C 144.338,239.842 144.672,240.508 144.5,241.5C 144.418,244.585 145.918,246.252 149,246.5C 153.133,246.531 154.966,244.531 154.5,240.5C 154.5,239.833 154.833,239.5 155.5,239.5C 173.829,222.005 192.329,204.672 211,187.5C 211.494,185.866 211.66,184.199 211.5,182.5 Z"/></g>
<g><path style="opacity:1" fill="#b8272b" d="M 259.5,271.5 C 259.83,255.325 259.496,239.325 258.5,223.5C 258.821,217.974 258.488,212.64 257.5,207.5C 257.073,192.418 255.74,177.418 253.5,162.5C 252.167,162.5 250.833,162.5 249.5,162.5C 250.005,169.519 250.672,176.519 251.5,183.5C 249.154,177.344 247.821,170.844 247.5,164C 247.585,162.893 247.919,161.893 248.5,161C 250.568,160.313 252.568,160.48 254.5,161.5C 255.73,173.293 257.564,184.96 260,196.5C 260.83,221.67 260.663,246.67 259.5,271.5 Z"/></g>
<g><path style="opacity:1" fill="#a61f2d" d="M 86.5,187.5 C 105.552,204.89 124.552,222.223 143.5,239.5C 143.338,241.527 143.505,243.527 144,245.5C 145.46,247.422 147.127,248.089 149,247.5C 149.667,261.5 149.667,275.5 149,289.5C 146.522,287.18 143.689,285.514 140.5,284.5C 125.338,274.678 111.671,263.011 99.5,249.5C 99.2914,248.078 98.7914,246.745 98,245.5C 94.6332,241.635 91.1332,237.968 87.5,234.5C 90.1868,232.489 90.0201,230.822 87,229.5C 86.3333,218.5 86.3333,207.5 87,196.5C 87.6377,195.391 88.1377,194.225 88.5,193C 87.6805,191.2 87.0138,189.366 86.5,187.5 Z"/></g>
<g><path style="opacity:1" fill="#a7242b" d="M 212.5,190.5 C 213.151,204.932 213.818,219.265 214.5,233.5C 214.829,247.344 214.496,261.01 213.5,274.5C 213.829,260.99 213.496,247.656 212.5,234.5C 211.379,219.672 211.379,205.006 212.5,190.5 Z"/></g>
<g><path style="opacity:1" fill="#b03737" d="M 3.5,175.5 C 3.19983,190.504 2.69983,205.504 2,220.5C 1.76791,221.737 1.26791,222.737 0.5,223.5C 0.0697114,207.26 1.06971,191.26 3.5,175.5 Z"/></g>
<g><path style="opacity:1" fill="#a78d90" d="M 211.5,182.5 C 211.66,184.199 211.494,185.866 211,187.5C 192.329,204.672 173.829,222.005 155.5,239.5C 153.952,238.206 151.952,237.539 149.5,237.5C 147.048,237.539 145.048,238.206 143.5,239.5C 124.552,222.223 105.552,204.89 86.5,187.5C 86.238,186.022 86.5713,184.689 87.5,183.5C 87.8333,183.667 88.1667,183.833 88.5,184C 95.7244,190.73 103.058,197.23 110.5,203.5C 111.028,204.721 111.695,205.887 112.5,207C 116.061,210.073 119.728,212.906 123.5,215.5C 123.833,216.5 124.5,217.167 125.5,217.5C 130.41,222.954 135.744,227.954 141.5,232.5C 144.599,236.24 148.599,237.407 153.5,236C 172.672,217.995 192.005,200.162 211.5,182.5 Z"/></g>
<g><path style="opacity:1" fill="#953239" d="M 110.5,203.5 C 112.435,204.15 114.435,204.483 116.5,204.5C 116.491,206.308 116.991,207.975 118,209.5C 120.04,211.37 121.873,213.37 123.5,215.5C 119.728,212.906 116.061,210.073 112.5,207C 111.695,205.887 111.028,204.721 110.5,203.5 Z"/></g>
<g><path style="opacity:1" fill="#a8313d" d="M 148.5,191.5 C 149.167,191.5 149.833,191.5 150.5,191.5C 149.517,206.088 149.184,220.755 149.5,235.5C 146.594,235.043 143.928,234.043 141.5,232.5C 135.744,227.954 130.41,222.954 125.5,217.5C 128.563,219.051 131.229,221.218 133.5,224C 136.289,224.241 138.956,224.908 141.5,226C 140.328,226.419 139.328,227.085 138.5,228C 141.255,232.531 143.088,232.364 144,227.5C 143.855,230.923 145.355,232.923 148.5,233.5C 148.5,219.5 148.5,205.5 148.5,191.5 Z"/></g>
<g><path style="opacity:0.286" fill="#b75759" d="M 296.5,195.5 C 298.068,207.297 298.735,219.297 298.5,231.5C 297.833,225.167 297.167,218.833 296.5,212.5C 296.5,206.833 296.5,201.167 296.5,195.5 Z"/></g>
<g><path style="opacity:1" fill="#c42429" d="M 268.5,136.5 C 271.786,137.207 275.119,137.54 278.5,137.5C 282.525,137.63 286.191,138.63 289.5,140.5C 289.215,143.829 289.882,146.829 291.5,149.5C 292.815,154.711 293.482,160.044 293.5,165.5C 293.783,174.388 294.783,183.055 296.5,191.5C 296.5,192.833 296.5,194.167 296.5,195.5C 296.5,201.167 296.5,206.833 296.5,212.5C 296.831,240.338 296.498,268.005 295.5,295.5C 295.196,273.187 295.196,250.853 295.5,228.5C 295.099,217.146 294.432,205.812 293.5,194.5C 294.664,191.959 294.498,189.625 293,187.5C 292.323,173.025 290.823,158.691 288.5,144.5C 284.625,144.915 280.958,144.415 277.5,143C 280.711,141.847 284.044,141.18 287.5,141C 284.167,140.667 280.833,140.333 277.5,140C 275.038,138.784 272.371,138.118 269.5,138C 268.944,137.617 268.611,137.117 268.5,136.5 Z"/></g>
<g><path style="opacity:0.169" fill="#fbc2c3" d="M 87.5,237.5 C 86.8826,237.389 86.3826,237.056 86,236.5C 85.5026,239.146 85.3359,241.813 85.5,244.5C 85.5,248.167 85.5,251.833 85.5,255.5C 85.5,260.833 85.5,266.167 85.5,271.5C 85.1667,271.5 84.8333,271.5 84.5,271.5C 84.3335,259.162 84.5001,246.829 85,234.5C 86.417,235.078 87.2504,236.078 87.5,237.5 Z"/></g>
<g><path style="opacity:0.988" fill="#af3032" d="M 296.5,212.5 C 297.167,218.833 297.833,225.167 298.5,231.5C 298.96,255.555 298.293,279.555 296.5,303.5C 296.167,303.5 295.833,303.5 295.5,303.5C 295.5,300.833 295.5,298.167 295.5,295.5C 296.498,268.005 296.831,240.338 296.5,212.5 Z"/></g>
<g><path style="opacity:1" fill="#ad8d8e" d="M 43.5,271.5 C 42.959,285.761 43.959,299.761 46.5,313.5C 46.5401,318.193 46.8734,322.859 47.5,327.5C 47.5,329.167 47.5,330.833 47.5,332.5C 45.0411,332.69 43.3745,331.69 42.5,329.5C 41.8998,314.163 41.2332,298.83 40.5,283.5C 40.0788,258.136 40.5788,232.803 42,207.5C 42.1681,229.004 42.6681,250.337 43.5,271.5 Z"/></g>
<g><path style="opacity:0.559" fill="#90272b" d="M 87.5,234.5 C 91.1332,237.968 94.6332,241.635 98,245.5C 98.7914,246.745 99.2914,248.078 99.5,249.5C 95.1667,245.833 91.1667,241.833 87.5,237.5C 87.2504,236.078 86.417,235.078 85,234.5C 84.5001,246.829 84.3335,259.162 84.5,271.5C 83.5046,259.011 83.1713,246.344 83.5,233.5C 84.9587,233.433 86.2921,233.766 87.5,234.5 Z"/></g>
<g><path style="opacity:1" fill="#b12d32" d="M 251.5,183.5 C 252.831,191.464 253.831,199.464 254.5,207.5C 254.719,237.846 254.219,268.179 253,298.5C 252.802,300.382 252.302,302.048 251.5,303.5C 252.011,294.842 252.344,286.175 252.5,277.5C 252.696,246.158 252.363,214.825 251.5,183.5 Z"/></g>
<g><path style="opacity:1" fill="#b3878a" d="M 257.5,207.5 C 258.488,212.64 258.821,217.974 258.5,223.5C 259.623,257.513 257.956,291.347 253.5,325C 253.933,326.928 254.6,328.761 255.5,330.5C 255.457,331.416 255.124,332.083 254.5,332.5C 254.541,328.757 253.874,328.59 252.5,332C 251.552,332.483 250.552,332.649 249.5,332.5C 249.5,330.833 249.5,329.167 249.5,327.5C 251.159,319.634 251.826,311.634 251.5,303.5C 252.302,302.048 252.802,300.382 253,298.5C 254.219,268.179 254.719,237.846 254.5,207.5C 254.334,202.489 254.501,197.489 255,192.5C 255.6,197.681 256.434,202.681 257.5,207.5 Z"/></g>
<g><path style="opacity:1" fill="#be2c2f" d="M 40.5,191.5 C 39.5637,222.152 39.2303,252.819 39.5,283.5C 39.3018,291.534 39.6351,299.534 40.5,307.5C 39.8826,307.389 39.3826,307.056 39,306.5C 38.5005,300.175 38.3338,293.842 38.5,287.5C 37.1667,287.5 35.8333,287.5 34.5,287.5C 36.1674,266.233 37.0007,244.899 37,223.5C 37.642,212.618 38.8087,201.951 40.5,191.5 Z"/></g>
<g><path style="opacity:0.908" fill="#b62b2d" d="M 85.5,187.5 C 85.8333,187.5 86.1667,187.5 86.5,187.5C 87.0138,189.366 87.6805,191.2 88.5,193C 88.1377,194.225 87.6377,195.391 87,196.5C 86.3333,207.5 86.3333,218.5 87,229.5C 90.0201,230.822 90.1868,232.489 87.5,234.5C 86.2921,233.766 84.9587,233.433 83.5,233.5C 83.1713,246.344 83.5046,259.011 84.5,271.5C 84.8333,271.5 85.1667,271.5 85.5,271.5C 86.1696,292.88 87.5029,314.213 89.5,335.5C 89.8721,342.837 90.3721,350.171 91,357.5C 91.2784,358.416 91.7784,359.082 92.5,359.5C 92.5,362.167 92.5,364.833 92.5,367.5C 89.1667,367.5 85.8333,367.5 82.5,367.5C 79.5,367.5 76.5,367.5 73.5,367.5C 67.75,365.85 61.75,365.184 55.5,365.5C 52.8333,364.833 50.1667,364.167 47.5,363.5C 62.1962,364.491 76.8629,365.325 91.5,366C 88.6309,361.616 87.9643,356.949 89.5,352C 86.9802,327.643 84.8135,303.143 83,278.5C 82.8056,248.138 83.6389,217.805 85.5,187.5 Z"/></g>
<g><path style="opacity:1" fill="#aa393c" d="M 258.5,223.5 C 259.496,239.325 259.83,255.325 259.5,271.5C 259.228,283.174 258.728,294.84 258,306.5C 257.326,315.848 256.159,324.848 254.5,333.5C 254.5,333.167 254.5,332.833 254.5,332.5C 255.124,332.083 255.457,331.416 255.5,330.5C 254.6,328.761 253.933,326.928 253.5,325C 257.956,291.347 259.623,257.513 258.5,223.5 Z"/></g>
<g><path style="opacity:1" fill="#c74944" d="M -0.5,271.5 C 1.07994,273.717 2.07994,276.384 2.5,279.5C 3.41613,288.157 4.24946,296.824 5,305.5C 5.33333,305.833 5.66667,306.167 6,306.5C 6.33333,305.5 6.66667,304.5 7,303.5C 7.49546,305.473 7.66212,307.473 7.5,309.5C 6.5,309.5 5.5,309.5 4.5,309.5C 4.5,315.833 4.5,322.167 4.5,328.5C 2.05236,312.908 0.385695,297.241 -0.5,281.5C -0.5,278.167 -0.5,274.833 -0.5,271.5 Z"/></g>
<g><path style="opacity:0.063" fill="#fcdcdb" d="M 85.5,255.5 C 87.1516,293.509 90.4849,331.509 95.5,369.5C 90.5,369.5 85.5,369.5 80.5,369.5C 78.1667,368.833 75.8333,368.167 73.5,367.5C 76.5,367.5 79.5,367.5 82.5,367.5C 86.3112,368.645 90.3112,368.812 94.5,368C 93.8719,365.061 93.2052,362.228 92.5,359.5C 92.1396,351.283 91.1396,343.283 89.5,335.5C 87.5029,314.213 86.1696,292.88 85.5,271.5C 85.5,266.167 85.5,260.833 85.5,255.5 Z"/></g>
<g><path style="opacity:0.759" fill="#c05f5d" d="M 295.5,303.5 C 295.833,303.5 296.167,303.5 296.5,303.5C 296.414,312.409 295.414,321.075 293.5,329.5C 293.811,320.794 294.477,312.127 295.5,303.5 Z"/></g>
<g><path style="opacity:0.106" fill="#f9dbdc" d="M 212.5,234.5 C 213.496,247.656 213.829,260.99 213.5,274.5C 213.431,279.854 213.098,285.187 212.5,290.5C 211.114,312.079 209.114,333.746 206.5,355.5C 205.833,356.833 205.167,358.167 204.5,359.5C 209.85,319.218 212.35,278.551 212,237.5C 194.304,259.379 173.471,277.379 149.5,291.5C 145.519,290.366 141.852,288.533 138.5,286C 119.427,272.262 102.261,256.428 87,238.5C 86.8091,240.708 86.3091,242.708 85.5,244.5C 85.3359,241.813 85.5026,239.146 86,236.5C 86.3826,237.056 86.8826,237.389 87.5,237.5C 91.1667,241.833 95.1667,245.833 99.5,249.5C 111.671,263.011 125.338,274.678 140.5,284.5C 143.428,287.964 147.095,289.797 151.5,290C 174.5,274.503 194.834,256.003 212.5,234.5 Z"/></g>
<g><path style="opacity:1" fill="#f5d9da" d="M 154.5,240.5 C 154.966,244.531 153.133,246.531 149,246.5C 145.918,246.252 144.418,244.585 144.5,241.5C 145.976,242.733 147.643,243.733 149.5,244.5C 151.165,243.177 152.832,241.844 154.5,240.5 Z"/></g>
<g><path style="opacity:1" fill="#9a9899" d="M 155.5,239.5 C 154.833,239.5 154.5,239.833 154.5,240.5C 152.832,241.844 151.165,243.177 149.5,244.5C 147.643,243.733 145.976,242.733 144.5,241.5C 144.672,240.508 144.338,239.842 143.5,239.5C 145.048,238.206 147.048,237.539 149.5,237.5C 151.952,237.539 153.952,238.206 155.5,239.5 Z"/></g>
<g><path style="opacity:1" fill="#c6262b" d="M 252.5,277.5 C 252.344,286.175 252.011,294.842 251.5,303.5C 251.826,311.634 251.159,319.634 249.5,327.5C 246.756,328.072 245.923,329.738 247,332.5C 249.242,334.715 251.742,335.048 254.5,333.5C 254.586,334.496 254.252,335.329 253.5,336C 246.354,336.369 243.354,332.869 244.5,325.5C 242.5,325.5 240.5,325.5 238.5,325.5C 238.5,324.167 238.5,322.833 238.5,321.5C 240.144,321.286 241.644,321.62 243,322.5C 244.399,321.773 245.899,321.273 247.5,321C 245.35,318.445 245.017,315.612 246.5,312.5C 247.086,312.709 247.586,313.043 248,313.5C 248.167,312 248.333,310.5 248.5,309C 247.615,301.456 247.449,293.623 248,285.5C 249.036,288.753 249.703,292.086 250,295.5C 250.976,289.38 251.809,283.38 252.5,277.5 Z"/></g>
<g><path style="opacity:1" fill="#ad393b" d="M 39.5,283.5 C 39.8333,283.5 40.1667,283.5 40.5,283.5C 41.2332,298.83 41.8998,314.163 42.5,329.5C 42.366,331.292 42.6993,332.958 43.5,334.5C 41.2776,334.441 40.2776,333.275 40.5,331C 40.9578,323.205 40.9578,315.371 40.5,307.5C 39.6351,299.534 39.3018,291.534 39.5,283.5 Z"/></g>
<g><path style="opacity:1" fill="#f7dbd6" d="M 249.5,327.5 C 249.5,329.167 249.5,330.833 249.5,332.5C 250.552,332.649 251.552,332.483 252.5,332C 253.874,328.59 254.541,328.757 254.5,332.5C 254.5,332.833 254.5,333.167 254.5,333.5C 251.742,335.048 249.242,334.715 247,332.5C 245.923,329.738 246.756,328.072 249.5,327.5 Z"/></g>
<g><path style="opacity:1" fill="#fad6cf" d="M 47.5,327.5 C 50.7031,332.016 49.3698,334.349 43.5,334.5C 42.6993,332.958 42.366,331.292 42.5,329.5C 43.3745,331.69 45.0411,332.69 47.5,332.5C 47.5,330.833 47.5,329.167 47.5,327.5 Z"/></g>
<g><path style="opacity:0.886" fill="#b43c3b" d="M 212.5,290.5 C 213.849,312.638 211.849,334.305 206.5,355.5C 209.114,333.746 211.114,312.079 212.5,290.5 Z"/></g>
<g><path style="opacity:0.745" fill="#bb4a4c" d="M 293.5,331.5 C 292.688,338.724 291.354,345.724 289.5,352.5C 289.838,346.802 290.505,341.135 291.5,335.5C 291.585,333.667 292.252,332.334 293.5,331.5 Z"/></g>
<g><path style="opacity:1" fill="#b9383a" d="M 5.5,335.5 C 6.58617,335.62 7.25284,336.287 7.5,337.5C 9.20792,344.389 10.8746,351.223 12.5,358C 20.7197,359.802 29.053,360.802 37.5,361C 38.4158,361.278 39.0825,361.778 39.5,362.5C 37.8333,362.5 36.1667,362.5 34.5,362.5C 26.4555,362.129 18.4555,361.296 10.5,360C 9.66337,358.989 9.33003,357.822 9.5,356.5C 9.82943,353.772 9.16276,351.438 7.5,349.5C 6.44563,344.893 5.77897,340.227 5.5,335.5 Z"/></g>
<g><path style="opacity:0.361" fill="#c97477" d="M 7.5,349.5 C 9.16276,351.438 9.82943,353.772 9.5,356.5C 8.38815,354.401 7.72148,352.067 7.5,349.5 Z"/></g>
<g><path style="opacity:0.806" fill="#b03938" d="M 89.5,335.5 C 91.1396,343.283 92.1396,351.283 92.5,359.5C 91.7784,359.082 91.2784,358.416 91,357.5C 90.3721,350.171 89.8721,342.837 89.5,335.5 Z"/></g>
<g><path style="opacity:0.953" fill="#b64c49" d="M 289.5,353.5 C 289.951,359.382 287.284,361.716 281.5,360.5C 283.406,359.518 285.406,358.518 287.5,357.5C 287.994,355.974 288.661,354.641 289.5,353.5 Z"/></g>
<g><path style="opacity:0.063" fill="#fcd4d5" d="M 34.5,362.5 C 36.1667,362.5 37.8333,362.5 39.5,362.5C 41.9479,363.473 44.6146,363.806 47.5,363.5C 50.1667,364.167 52.8333,364.833 55.5,365.5C 48.182,365.713 41.182,364.713 34.5,362.5 Z"/></g>
<g><path style="opacity:0.145" fill="#fabbc2" d="M 204.5,359.5 C 204.777,362.448 204.444,365.281 203.5,368C 205.473,368.495 207.473,368.662 209.5,368.5C 209.5,368.833 209.5,369.167 209.5,369.5C 207.167,369.5 204.833,369.5 202.5,369.5C 202.549,365.922 203.215,362.589 204.5,359.5 Z"/></g>
<g><path style="opacity:0.153" fill="#f9c8c8" d="M 281.5,360.5 C 278.466,362.018 275.133,362.851 271.5,363C 252.974,364.78 234.64,366.946 216.5,369.5C 214.167,369.5 211.833,369.5 209.5,369.5C 209.5,369.167 209.5,368.833 209.5,368.5C 219.623,367.053 229.623,365.719 239.5,364.5C 253.505,363.227 267.505,361.893 281.5,360.5 Z"/></g>
<g><path style="opacity:0.021" fill="#fdeaea" d="M 55.5,365.5 C 61.75,365.184 67.75,365.85 73.5,367.5C 67.2737,367.612 61.2737,366.946 55.5,365.5 Z"/></g>
<g><path style="opacity:0.817" fill="#b2312f" d="M 206.5,355.5 C 206.5,359.167 206.5,362.833 206.5,366.5C 217.492,365.724 228.492,365.057 239.5,364.5C 229.623,365.719 219.623,367.053 209.5,368.5C 207.473,368.662 205.473,368.495 203.5,368C 204.444,365.281 204.777,362.448 204.5,359.5C 205.167,358.167 205.833,356.833 206.5,355.5 Z"/></g>
<g><path style="opacity:0.659" fill="#a73b3b" d="M 92.5,359.5 C 93.2052,362.228 93.8719,365.061 94.5,368C 90.3112,368.812 86.3112,368.645 82.5,367.5C 85.8333,367.5 89.1667,367.5 92.5,367.5C 92.5,364.833 92.5,362.167 92.5,359.5 Z"/></g>
</svg>
